<svg xmlns="http://www.w3.org/2000/svg" width="22" height="24" fill="none" viewBox="0 0 22 24"><path stroke="#000" stroke-linecap="round" stroke-miterlimit="10" stroke-width="1.002" d="M11 9.33333C16.5228 9.33333 21 7.46785 21 5.16667C21 2.86548 16.5228 1 11 1C5.47715 1 1 2.86548 1 5.16667C1 7.46785 5.47715 9.33333 11 9.33333Z"/><path stroke="#000" stroke-linecap="round" stroke-miterlimit="10" stroke-width="1.002" d="M21 9.64844C21 11.9495 16.5208 13.8151 11 13.8151C5.47917 13.8151 1 11.9495 1 9.64844"/><path stroke="#000" stroke-linecap="round" stroke-miterlimit="10" stroke-width="1.002" d="M21 14.125C21 16.426 16.5208 18.2917 11 18.2917C5.47917 18.2917 1 16.426 1 14.125"/><path stroke="#000" stroke-linecap="round" stroke-miterlimit="10" stroke-width="1.002" d="M1 5.125V18.5375C1 20.8167 5.47917 22.6646 11 22.6646C16.5208 22.6646 21 20.8167 21 18.5375V5.125"/></svg>