<svg xmlns="http://www.w3.org/2000/svg" xmlns:xlink="http://www.w3.org/1999/xlink" xmlns:xodm="http://www.corel.com/coreldraw/odm/2003" id="Layer_1" x="0" y="0" version="1.1" viewBox="0 0 2500 2500" style="enable-background:new 0 0 2500 2500" xml:space="preserve"><style type="text/css">.st0{fill:url(#SVGID_1_)}.st1{fill:#fff}.st4{fill:none;stroke:#2d2d3d;stroke-width:6.5789;stroke-miterlimit:75.4132}</style><g id="Layer_x0020_1"><g id="_2188392809712"><linearGradient id="SVGID_1_" x1="502.106" x2="317.62" y1="2631.649" y2="1858.615" gradientTransform="matrix(3.2895 0 0 -3.2895 0 8223.6846)" gradientUnits="userSpaceOnUse"><stop offset="0" style="stop-color:#2c2c3d"/><stop offset="1" style="stop-color:#1a1a27"/></linearGradient><path d="M511.2,0h1477.6C2272.4,0,2500,227.6,2500,511.2v1477.6c0,283.6-227.6,511.2-511.2,511.2H511.2 C227.6,2500,0,2272.4,0,1988.8V511.2C0,227.6,227.6,0,511.2,0z" class="st0"/><g><polygon points="1573.2 567.3 600.3 1932.7 897.1 1932.7 1873.4 567.3" class="st1"/><linearGradient id="SVGID_00000018941007157823207550000000798736158471192495_" x1="250.5" x2="372.822" y1="2296.482" y2="2150.097" gradientTransform="matrix(3.2895 0 0 -3.2895 0 8223.6846)" gradientUnits="userSpaceOnUse"><stop offset="0" style="stop-color:#fff"/><stop offset="1" style="stop-color:#fff;stop-opacity:.549"/></linearGradient><polygon style="fill:url(#SVGID_00000018941007157823207550000000798736158471192495_)" points="930.1 567.3 1217 969.7 1065.3 1187.3 626.6 567.3"/><linearGradient id="SVGID_00000000909882551984761740000004032762994945808257_" x1="508.688" x2="357.29" y1="1947.268" y2="2153.811" gradientTransform="matrix(3.2895 0 0 -3.2895 0 8223.6846)" gradientUnits="userSpaceOnUse"><stop offset="0" style="stop-color:#6966ff"/><stop offset="1" style="stop-color:#6966ff;stop-opacity:.3608"/></linearGradient><polygon style="fill:url(#SVGID_00000000909882551984761740000004032762994945808257_)" points="1599.6 1932.7 1283 1487.5 1431.4 1273.1 1899.7 1932.7"/></g><path d="M511.2,0h1477.6C2272.4,0,2500,227.6,2500,511.2v1477.6c0,283.6-227.6,511.2-511.2,511.2H511.2 C227.6,2500,0,2272.4,0,1988.8V511.2C0,227.6,227.6,0,511.2,0z" class="st4"/></g></g></svg>